<svg xmlns="http://www.w3.org/2000/svg" width="50" height="50" viewBox="0 0 50 50"><defs><style>.a{fill:none;}.b{fill:#fff;}</style></defs><rect class="a" width="50" height="50"/><g transform="translate(6.182 6.818)"><path class="b" d="M37.347,13.251,31.287,8.4a.605.605,0,0,0-.379-.133H6.666a.607.607,0,0,0-.379.133L.227,13.251a.6.6,0,0,0,.326,1.071l11.13,11.13a10.909,10.909,0,1,0,14.209,0l11.13-11.13a.6.6,0,0,0,.326-1.071ZM21.356,23.127l8.8-8.8H35.3L24.92,24.71a10.8,10.8,0,0,0-3.564-1.583Zm-8.7,1.583L2.274,14.331H7.42l8.8,8.8a10.8,10.8,0,0,0-3.563,1.582Zm5.031-1.83L9.135,14.331h19.3l-8.549,8.55a10.394,10.394,0,0,0-2.2,0ZM6.879,9.482H30.7l4.545,3.636H2.334Zm21.6,24.242a9.7,9.7,0,1,1-15.531-7.74,9.551,9.551,0,0,1,4.591-1.872,9.117,9.117,0,0,1,2.5,0A9.7,9.7,0,0,1,28.484,33.724Z" transform="translate(0.001 -8.27)"/><path class="b" d="M154,241.171a8.4,8.4,0,0,0-4.027-1.637,7.9,7.9,0,0,0-2.182,0A8.484,8.484,0,1,0,154,241.167Zm-5.1,14.047a7.266,7.266,0,0,1-4.373-13.077,7.119,7.119,0,0,1,3.425-1.4,6.947,6.947,0,0,1,.948-.068,6.748,6.748,0,0,1,.918.06,7.272,7.272,0,0,1-.918,14.485Z" transform="translate(-130.105 -222.491)"/><path class="b" d="M190.592,288.039a.4.4,0,0,1-.237-.073l-2.867-2.087-2.867,2.083a.4.4,0,0,1-.621-.451l1.1-3.37-2.867-2.083a.4.4,0,0,1,.237-.73h3.543l1.1-3.37a.4.4,0,0,1,.768,0l1.1,3.37h3.543a.4.4,0,0,1,.237.73l-2.867,2.083,1.1,3.37a.4.4,0,0,1-.384.528Zm-3.1-3.063a.4.4,0,0,1,.237.077l2.1,1.525-.8-2.467a.4.4,0,0,1,.147-.451l2.1-1.525h-2.6a.4.4,0,0,1-.384-.279l-.8-2.465-.8,2.468a.4.4,0,0,1-.384.279h-2.594l2.1,1.525a.4.4,0,0,1,.147.451l-.8,2.467,2.1-1.525A.405.405,0,0,1,187.488,284.976Z" transform="translate(-168.7 -257.906)"/></g></svg>