<svg xmlns="http://www.w3.org/2000/svg" width="50" height="50" viewBox="0 0 50 50"><defs><style>.a{fill:none;}.b{fill:#fff;}</style></defs><rect class="a" width="50" height="50"/><g transform="translate(12.273 6.818)"><g transform="translate(0)"><path class="b" d="M91.951,0H79.83A3.034,3.034,0,0,0,76.8,3.03V24.849a3.034,3.034,0,0,0,3.03,3.03H90.739V26.667H79.83a1.82,1.82,0,0,1-1.818-1.818V3.03A1.82,1.82,0,0,1,79.83,1.212H91.952A1.82,1.82,0,0,1,93.77,3.03V20.606h1.212V3.03A3.034,3.034,0,0,0,91.951,0Z" transform="translate(-76.8)"/></g><g transform="translate(8.485 8.713)"><path class="b" d="M211.777,130.105l-5.945-7.43-.947.758,5.945,7.43a5.47,5.47,0,0,1,1.2,3.409v14.842h-8.867a5.685,5.685,0,0,1-5.679-5.679v-2.2h-1.212v2.2a6.9,6.9,0,0,0,6.891,6.891h9.473a.605.605,0,0,0,.606-.606V134.272A6.692,6.692,0,0,0,211.777,130.105Z" transform="translate(-196.267 -122.675)"/></g><g transform="translate(7.448 13.08)"><path class="b" d="M184.526,185.373a1.582,1.582,0,0,1,1.113.5l8.145,8.655.883-.831-8.146-8.655a2.788,2.788,0,0,0-1.96-.878,2.752,2.752,0,0,0-2,.759l-.061.059a2.8,2.8,0,0,0-.161,3.8l5.22,6.164v1.875a8.109,8.109,0,0,0,5.242,7.562l.425-1.135a6.892,6.892,0,0,1-4.455-6.427v-2.1a.608.608,0,0,0-.144-.392l-5.362-6.332a1.6,1.6,0,0,1,.121-2.185A1.622,1.622,0,0,1,184.526,185.373Z" transform="translate(-181.674 -184.16)"/></g><g transform="translate(13.333 1.212)"><rect class="b" width="1.212" height="15.151"/></g><g transform="translate(10.303 20)"><rect class="b" width="1.212" height="7.273"/></g><g transform="translate(10.303 0.606)"><rect class="b" width="1.212" height="13.333"/></g><g transform="translate(3.03 3.03)"><rect class="b" width="1.212" height="7.879"/></g><g transform="translate(6.061 3.03)"><rect class="b" width="1.212" height="4.849"/></g><g transform="translate(3.03 20)"><path class="b" d="M123.709,281.6h-3.636a.606.606,0,0,0-.606.606v3.636a.606.606,0,0,0,.606.606h3.636a.606.606,0,0,0,.606-.606v-3.636A.606.606,0,0,0,123.709,281.6Zm-.606,3.636h-2.424v-2.424H123.1Z" transform="translate(-119.467 -281.6)"/></g></g></svg>