<svg xmlns="http://www.w3.org/2000/svg" width="50" height="50" viewBox="0 0 50 50"><defs><style>.a{fill:none;}.b{fill:#fff;}</style></defs><rect class="a" width="50" height="50"/><g transform="translate(9.547 6.818)"><g transform="translate(0)"><path class="b" d="M68.147,6.278A60.391,60.391,0,0,1,53.595.107a.756.756,0,0,0-.774,0,58.831,58.831,0,0,1-14.56,6.172.761.761,0,0,0-.561.739V14.83a22.506,22.506,0,0,0,6.825,16.428c3.352,3.288,7.259,5.107,8.679,5.107s5.327-1.818,8.679-5.107A22.478,22.478,0,0,0,68.709,14.83V7.017A.761.761,0,0,0,68.147,6.278Zm-.966,8.551a20.992,20.992,0,0,1-6.371,15.334c-3.3,3.232-6.825,4.666-7.607,4.666s-4.311-1.435-7.607-4.666A20.966,20.966,0,0,1,39.227,14.83V7.6A60.334,60.334,0,0,0,53.2,1.655,62.366,62.366,0,0,0,67.182,7.6Z" transform="translate(-37.7)"/><path class="b" d="M126.977,160.146a2.488,2.488,0,0,0-3.523,3.516l4.517,4.517a2.486,2.486,0,0,0,3.523,0l9.432-9.432a2.488,2.488,0,1,0-3.523-3.516l-7.67,7.67Zm11.506-3.828a.957.957,0,1,1,1.349,1.357l-9.418,9.425a.96.96,0,0,1-1.349,0l-4.517-4.517a.957.957,0,0,1,1.349-1.357l3.3,3.3a.776.776,0,0,0,.54.227.747.747,0,0,0,.54-.227Z" transform="translate(-116.686 -143.527)"/></g></g></svg>