<svg xmlns="http://www.w3.org/2000/svg" width="50" height="50" viewBox="0 0 50 50"><defs><style>.a{fill:none;}.b{fill:#fff;}</style></defs><rect class="a" width="50" height="50"/><g transform="translate(6.09 6.818)"><path class="b" d="M74.338,48.2H43.287A3.4,3.4,0,0,0,39.9,51.587v29.59a3.4,3.4,0,0,0,3.4,3.387H74.347a3.4,3.4,0,0,0,3.387-3.387V51.587A3.414,3.414,0,0,0,74.338,48.2Zm1.645,32.985a1.643,1.643,0,0,1-1.645,1.645H43.287a1.643,1.643,0,0,1-1.645-1.645v-29.6a1.643,1.643,0,0,1,1.645-1.645H74.329a1.643,1.643,0,0,1,1.645,1.645v29.6Z" transform="translate(-39.9 -48.2)"/><path class="b" d="M113.667,237.887h-1.8v-4.061h-1.742v4.061h-1.812v-4.735h-1.742v4.735h-1.8v-6.765h-1.75v6.765h-1.8V227.061h-1.75v10.826h-1.8v-2.7H95.91v2.7H93.144v-4.735h-1.75v4.735h-1.8v-6.765H87.84v6.765H85.653l-.053,1.742h29.817V223h-1.75Z" transform="translate(-81.6 -207.702)"/><path class="b" d="M97.867,134.134a2.143,2.143,0,0,0,1.129.324h.149a1.867,1.867,0,0,0,.5-.1l-.009-.009a2.173,2.173,0,0,0,.875-.534,2.14,2.14,0,0,0,.63-1.514,2.014,2.014,0,0,0-.061-.508l6-4.647a2.124,2.124,0,0,0,1.567.184l1.181,1.453a2.152,2.152,0,0,0,1.015,2.757,2.138,2.138,0,0,0,2.871-.963,2.154,2.154,0,0,0,.228-.954c0-.1-.009-.193-.018-.289l7.483-4.848a2.186,2.186,0,0,0,1.479.324,2.14,2.14,0,0,0,.971-3.833,2.149,2.149,0,0,0-1.593-.4,2.122,2.122,0,0,0-1.409.84,2.169,2.169,0,0,0-.42,1.278,2.129,2.129,0,0,0,.026.333l-7.457,4.831a2.129,2.129,0,0,0-1.89-.254l-1.111-1.365a2.163,2.163,0,0,0,.228-.963,2.14,2.14,0,0,0-2.144-2.135h0a2.135,2.135,0,0,0-2.135,2.144,1.947,1.947,0,0,0,.061.5l-6,4.647a2.14,2.14,0,0,0-2.144,3.7ZM122.573,122.3a.394.394,0,1,1-.394.394A.392.392,0,0,1,122.573,122.3Zm-10.765,6.931a.394.394,0,1,1-.394.394A.392.392,0,0,1,111.808,129.233Zm-3.711-4.358h0a.4.4,0,0,1,.4.394.394.394,0,1,1-.788,0A.38.38,0,0,1,108.1,124.874ZM99,131.919h0a.422.422,0,0,1,.28.114.383.383,0,0,1,.114.28.392.392,0,0,1-.394.394h0a.394.394,0,1,1,0-.788Z" transform="translate(-91.872 -114.223)"/></g></svg>