<svg xmlns="http://www.w3.org/2000/svg" width="50" height="50" viewBox="0 0 50 50"><defs><style>.a{fill:none;}.b{fill:#fff;}</style></defs><rect class="a" width="50" height="50"/><path class="b" d="M55.845,23.325V13.05a2.834,2.834,0,0,0,.647-.273,2.88,2.88,0,1,0-3.539-4.468L44.431,3.39a2.88,2.88,0,1,0-5.688-.048L30.129,8.314a2.88,2.88,0,1,0-2.879,4.739V23.317a2.882,2.882,0,1,0,2.824,4.8l8.706,5.026a2.836,2.836,0,0,0-.024.366,2.88,2.88,0,1,0,5.723-.46l8.535-4.928a2.881,2.881,0,1,0,2.831-4.8ZM42.2,25.507l-.013-4.359a2.9,2.9,0,0,0,1.581-.895L52.3,25.248c-.01.031-.02.063-.028.1-.015.055-.027.11-.039.165Zm-11.356,0a2.948,2.948,0,0,0-.092-.339l8.612-5.074a2.912,2.912,0,0,0,1.654,1.04l.013,4.374ZM29.466,12.78a2.893,2.893,0,0,0,.657-.518l3.835,2.245-5.174,8.806h-.011a2.8,2.8,0,0,0-.355-.071v-10.1a2.867,2.867,0,0,0,1.049-.358Zm5.5,2.318,3.94,2.307a2.873,2.873,0,0,0-.059,1.638l-8.686,5.117a2.857,2.857,0,0,0-.334-.315ZM42.6,5.61l4.829,8.38-3.811,2.246a2.89,2.89,0,0,0-1.445-.74l-.029-9.757A2.9,2.9,0,0,0,42.6,5.61Zm-.96,14.424H41.61a1.711,1.711,0,1,1-.011-3.423h.036a1.711,1.711,0,0,1,0,3.422ZM40.971,5.725,41,15.511a2.845,2.845,0,0,0-1.509.884l-3.933-2.3,4.99-8.5A2.947,2.947,0,0,0,40.971,5.725Zm11.888,18.5-8.5-4.975a2.882,2.882,0,0,0-.077-2.052L48.012,15l5.144,8.922A2.743,2.743,0,0,0,52.859,24.221Zm1.314-.874-5.154-8.941,3.839-2.262a2.88,2.88,0,0,0,1.819.994v10.1A2.858,2.858,0,0,0,54.173,23.347ZM54.2,8.8a1.711,1.711,0,1,1-.8,1.04,1.711,1.711,0,0,1,.8-1.04Zm-1.854.507c-.027.075-.051.151-.071.229a2.868,2.868,0,0,0,.026,1.583l-3.862,2.272L43.587,4.985a2.871,2.871,0,0,0,.412-.5ZM41.591,1.2A1.712,1.712,0,1,1,39.88,2.912,1.712,1.712,0,0,1,41.591,1.2ZM39.567,4.959,34.549,13.5l-3.816-2.234a2.071,2.071,0,0,0,.071-.234,2.855,2.855,0,0,0-.071-1.717l8.425-4.862A2.931,2.931,0,0,0,39.567,4.959ZM26.543,11.141a1.711,1.711,0,1,1,2.339.627A1.711,1.711,0,0,1,26.543,11.141Zm2.338,16.434a1.713,1.713,0,1,1,.8-1.039,1.713,1.713,0,0,1-.8,1.039Zm1.828-.437a2.83,2.83,0,0,0,.1-.3c.015-.055.028-.109.039-.165H41.037l.013,4.015a2.889,2.889,0,0,0-1.879,1.331Zm10.926,8.086a1.712,1.712,0,1,1,1.711-1.712A1.712,1.712,0,0,1,41.636,35.223Zm.582-4.533-.012-4.014H52.233a2.892,2.892,0,0,0,.142.467l-8.322,4.8A2.885,2.885,0,0,0,42.218,30.69Zm13.69-3.118a1.711,1.711,0,1,1,.627-2.338,1.711,1.711,0,0,1-.627,2.338Z" transform="translate(-16.508 6.784)"/></svg>