<svg xmlns="http://www.w3.org/2000/svg" width="50" height="50" viewBox="0 0 50 50"><defs><style>.a{fill:none;}.b{fill:#fff;}</style></defs><rect class="a" width="50" height="50"/><g transform="translate(6.818 6.818)"><g transform="translate(21.664 3.555)"><path class="b" d="M288.218,49.636c-.795-.243-.934-.356-.934-.757a.758.758,0,0,1,1.516,0h1.212a1.97,1.97,0,0,0-3.94,0c0,1.368,1.078,1.7,1.792,1.916.8.244.936.357.936.76a.758.758,0,0,1-1.516,0h-1.212a1.97,1.97,0,0,0,3.94,0C290.012,50.185,288.932,49.855,288.218,49.636Z" transform="translate(-286.072 -46.934)"/></g><g transform="translate(16.969 17.572)"><path class="b" d="M242.863,232.006H224.686a.606.606,0,0,0-.606.606v17.572a.606.606,0,0,0,.606.606h18.178a.606.606,0,0,0,.606-.606V232.612A.606.606,0,0,0,242.863,232.006Zm-5.453,1.212h1.818v2.121a.909.909,0,1,1-1.818,0Zm-3.03,0H236.2v2.121a.909.909,0,1,1-1.818,0Zm-3.03,0h1.818v2.121a.909.909,0,1,1-1.818,0Zm-3.03,0h1.818v2.121a.909.909,0,1,1-1.818,0Zm-3.03,0h1.818v2.121a.909.909,0,1,1-1.818,0Zm6.059,16.36h-3.635v-6.059h3.635Zm10.907,0h-9.695v-6.665a.606.606,0,0,0-.606-.606H227.11a.606.606,0,0,0-.606.606v6.665h-1.212V237.246a2.088,2.088,0,0,0,2.424-.429,2.11,2.11,0,0,0,2.983.046l.046-.046a2.11,2.11,0,0,0,2.983.046l.046-.046a2.11,2.11,0,0,0,2.983.046l.046-.046a2.11,2.11,0,0,0,2.983.046l.046-.046a2.088,2.088,0,0,0,2.424.429v12.331Zm0-14.239a.909.909,0,0,1-1.818,0v-2.121h1.818Z" transform="translate(-224.08 -232.006)"/></g><g transform="translate(0.609 22.419)"><path class="b" d="M20.7,296.006a.606.606,0,0,0-.586.453L19.6,298.43H8.686a.606.606,0,0,0-.585.763l1.626,6.059a.606.606,0,0,0,.585.449h1.1v.718a1.818,1.818,0,1,0,1.212,0V305.7H16.26v.718a1.818,1.818,0,1,0,1.212,0V305.7h.969a.606.606,0,0,0,.585-.449l2.141-8.034h2.061v-1.212ZM12.018,308.73a.606.606,0,1,1,.606-.606A.606.606,0,0,1,12.018,308.73Zm4.847,0a.606.606,0,1,1,.606-.606A.606.606,0,0,1,16.866,308.73Zm1.11-4.241h-7.2l-1.3-4.847h9.8Z" transform="translate(-8.08 -296.006)"/></g><g transform="translate(0 0)"><path class="b" d="M34.146,12.9l-1.389,1.389V6.666a.606.606,0,0,0-.606-.606H29.086a5.451,5.451,0,0,0-10.835,0H13.337a6.665,6.665,0,1,0,0,1.212h4.914a5.451,5.451,0,0,0,10.835,0h2.459v7.02L30.156,12.9l-.857.857,2.424,2.424a.606.606,0,0,0,.857,0h0L35,13.759ZM9.126,11.543a5.391,5.391,0,0,1-4.847,0V10.388a1.907,1.907,0,0,1,1.9-1.9H7.221a1.907,1.907,0,0,1,1.9,1.9v1.155ZM4.885,5.454A1.818,1.818,0,1,1,6.7,7.271,1.818,1.818,0,0,1,4.885,5.454Zm5.882,4.836a5.449,5.449,0,0,1-.429.429v-.33a3.106,3.106,0,0,0-1.6-2.706,3.03,3.03,0,1,0-4.279-.209q.1.109.209.209a3.106,3.106,0,0,0-1.6,2.706v.331a5.453,5.453,0,1,1,7.7-.429Zm12.9.618A4.241,4.241,0,1,1,27.91,6.666,4.241,4.241,0,0,1,23.668,10.907Z" transform="translate(-0.034 0)"/></g><g transform="translate(3.817 14.542)"><path class="b" d="M53.7,192.184a.606.606,0,0,0-.857,0h0l-2.424,2.424.857.857,1.389-1.389v7.02h1.212v-7.02l1.389,1.389.857-.857Z" transform="translate(-50.424 -192.006)"/></g><g transform="translate(26.664 24.237)"><path class="b" d="M358.745,320.006h-6.059a.606.606,0,0,0-.606.606v4.241a.606.606,0,0,0,.606.606h6.059a.606.606,0,0,0,.606-.606v-4.241A.606.606,0,0,0,358.745,320.006Zm-.606,4.241h-4.847v-3.03h4.847Z" transform="translate(-352.08 -320.006)"/></g></g></svg>