<svg xmlns="http://www.w3.org/2000/svg" width="44" height="44" viewBox="0 0 44 44"><defs><style>.a{fill:#fff;}.b{fill:#151716;}</style></defs><g transform="translate(-0.001)"><circle class="a" cx="22" cy="22" r="22" transform="translate(0.001)"/><path class="b" d="M9.542,36.508a4.929,4.929,0,1,0,4.929,4.929A4.921,4.921,0,0,0,9.542,36.508Zm0,8.133a3.2,3.2,0,1,1,3.2-3.2,3.21,3.21,0,0,1-3.2,3.2Zm6.28-8.335a1.15,1.15,0,1,1-1.15-1.15A1.147,1.147,0,0,1,15.822,36.307Zm3.265,1.167a5.689,5.689,0,0,0-1.553-4.028,5.727,5.727,0,0,0-4.028-1.553c-1.587-.09-6.345-.09-7.932,0a5.719,5.719,0,0,0-4.028,1.549A5.708,5.708,0,0,0-.007,37.469c-.09,1.587-.09,6.345,0,7.932a5.689,5.689,0,0,0,1.553,4.028,5.734,5.734,0,0,0,4.028,1.553c1.587.09,6.345.09,7.932,0a5.689,5.689,0,0,0,4.028-1.553A5.727,5.727,0,0,0,19.087,45.4C19.177,43.814,19.177,39.061,19.087,37.474ZM17.036,47.1a3.244,3.244,0,0,1-1.827,1.827c-1.265.5-4.268.386-5.667.386s-4.406.112-5.667-.386A3.244,3.244,0,0,1,2.047,47.1c-.5-1.265-.386-4.268-.386-5.667s-.112-4.406.386-5.667a3.244,3.244,0,0,1,1.827-1.827c1.265-.5,4.268-.386,5.667-.386s4.406-.112,5.667.386a3.244,3.244,0,0,1,1.827,1.827c.5,1.265.386,4.268.386,5.667S17.538,45.843,17.036,47.1Z" transform="translate(12.882 -19.018)"/></g></svg>