<svg xmlns="http://www.w3.org/2000/svg" width="44" height="44" viewBox="0 0 44 44"><defs><style>.a{fill:#fff;}.b{fill:#151716;}</style></defs><g transform="translate(0)"><circle class="a" cx="22" cy="22" r="22" transform="translate(0)"/><path class="b" d="M19.706,52.528c.014.2.014.39.014.585A12.72,12.72,0,0,1,6.912,65.921,12.721,12.721,0,0,1,0,63.9a9.312,9.312,0,0,0,1.087.056,9.015,9.015,0,0,0,5.589-1.923,4.509,4.509,0,0,1-4.209-3.122,5.677,5.677,0,0,0,.85.07A4.761,4.761,0,0,0,4.5,58.827a4.5,4.5,0,0,1-3.61-4.418v-.056a4.533,4.533,0,0,0,2.035.571A4.508,4.508,0,0,1,1.533,48.9a12.8,12.8,0,0,0,9.282,4.711,5.082,5.082,0,0,1-.111-1.031,4.506,4.506,0,0,1,7.79-3.08,8.862,8.862,0,0,0,2.857-1.087A4.489,4.489,0,0,1,19.372,50.9a9.024,9.024,0,0,0,2.592-.7A9.676,9.676,0,0,1,19.706,52.528Z" transform="translate(11.821 -35.275)"/></g></svg>