<svg xmlns="http://www.w3.org/2000/svg" width="36" height="36" viewBox="0 0 36 36"><defs><style>.a{opacity:0;}.b{fill:#111;}</style></defs><g class="a"><path class="b" d="M31.763,28.122,25.54,25.294a9,9,0,1,0-11.079,0L8.239,28.12a4.484,4.484,0,0,0-1.53,1.143,16.2,16.2,0,1,1,26.584,0,4.5,4.5,0,0,0-1.53-1.141M12.8,18.2A7.2,7.2,0,1,1,20,25.4a7.2,7.2,0,0,1-7.2-7.2m7.2,18A16.164,16.164,0,0,1,7.854,30.721a2.679,2.679,0,0,1,1.13-.959l7.348-3.341a9.027,9.027,0,0,0,7.339,0l7.348,3.341a2.685,2.685,0,0,1,1.129.959A16.16,16.16,0,0,1,20,36.2M20,2A18,18,0,1,0,38,20,18,18,0,0,0,20,2" transform="translate(-2 -2)"/></g></svg>