<svg xmlns="http://www.w3.org/2000/svg" width="44" height="44" viewBox="0 0 44 44"><defs><style>.a{fill:#fff;}.b{fill:#151716;}</style></defs><g transform="translate(0)"><circle class="a" cx="22" cy="22" r="22" transform="translate(0)"/><path class="b" d="M36.584,66.433a2.779,2.779,0,0,0-1.955-1.968C32.9,64,25.99,64,25.99,64s-6.915,0-8.639.465A2.779,2.779,0,0,0,15.4,66.433a31.284,31.284,0,0,0,0,10.714,2.737,2.737,0,0,0,1.955,1.936c1.725.465,8.639.465,8.639.465s6.915,0,8.639-.465a2.737,2.737,0,0,0,1.955-1.936,31.285,31.285,0,0,0,0-10.714ZM23.728,75.078V68.5l5.78,3.288-5.78,3.288Z" transform="translate(-3.112 -50.208)"/></g></svg>